<?xml version="1.0" encoding="UTF-8"?>
<svg width="292px" height="50px" viewBox="0 0 292 50" version="1.1" xmlns="http://www.w3.org/2000/svg" xmlns:xlink="http://www.w3.org/1999/xlink">
    <title>Group Copy 2@1.5x</title>
    <defs>
        <polygon id="path-1" points="-1.07328811e-14 0 48.2454595 0 48.2454595 21.7821782 -1.07328811e-14 21.7821782"></polygon>
    </defs>
    <g id="Version-blanca" stroke="none" stroke-width="1" fill="none" fill-rule="evenodd">
        <g id="Group-Copy-2">
            <path d="M70.3475059,30.5746059 L70.3187114,30.4788446 C69.3200668,27.078999 67.0341786,26.8739799 62.9617245,26.8630541 L57.6386742,26.8630541 L57.6386742,49.2699008 L62.9617245,49.2699008 L62.9617245,32.1087139 C64.7960631,31.7295251 67.3960728,32.3677192 67.3960728,36.5188729 L67.3960728,49.2699008 L73.0149208,49.2699008 L73.0149208,36.5188729 C73.0149208,32.3677192 75.6155849,31.7295251 77.4446881,32.1087139 L77.4446881,49.2699008 L82.7664295,49.2699008 L82.7664295,26.8630541 L77.4446881,26.8630541 C73.3696163,26.8739799 71.3559667,27.1381267 70.3475059,30.5746059 L70.3475059,30.5746059 Z M49.9184844,27.6593507 C47.7418843,26.8630541 46.2098877,26.8630541 43.2774327,26.8630541 L38.031604,26.8630541 L38.031604,49.2699008 L43.2774327,49.2699008 L43.2774327,43.2902857 L46.4284639,43.2902857 C48.4970847,43.2902857 49.6109071,45.1039652 49.6109071,46.8103149 L49.6109071,49.2699008 L54.6689174,49.2699008 L54.6689174,45.9683872 C54.6689174,42.9869346 53.8652899,42.002329 52.6781725,41.0954893 C53.6329709,40.0292617 54.9385383,38.479729 54.9385383,34.5046732 C54.9385383,31.1941619 53.012581,28.7949891 49.9184844,27.6593507 L49.9184844,27.6593507 Z M45.8133093,38.7098131 L43.2774327,38.7098131 L43.2774327,31.915906 C43.8179835,31.9281172 44.5620587,31.9319734 45.5803359,31.9319734 C48.4571651,31.9319734 49.6907463,33.6383231 49.6907463,35.298399 C49.6907463,37.4578473 48.1508966,38.7098131 45.8133093,38.7098131 L45.8133093,38.7098131 Z M0,49.2699008 L5.58481818,49.2699008 L5.58481818,41.071067 L14.2755125,41.071067 L14.2755125,35.9051011 L5.58481818,35.9051011 L5.58481818,32.1434193 L16.7616532,32.1434193 L16.7616532,26.8630541 L0,26.8630541 L0,49.2699008 Z M17.4782428,38.3524758 L17.4782428,49.2699008 L22.9635892,49.2699008 L22.9635892,43.3513415 L28.995376,43.3513415 L28.995376,49.2699008 L34.3177719,49.2699008 L34.3177719,26.8630541 L28.498017,26.8630541 C21.6429701,26.8630541 17.4782428,32.6106571 17.4782428,38.3524758 L17.4782428,38.3524758 Z M28.995376,38.7220243 L23.0087441,38.7220243 L23.0087441,36.6660496 C23.0087441,33.8677645 25.6611074,32.005883 28.498017,32.005883 C28.6681662,32.005883 28.8350432,32.0090965 28.995376,32.0225931 L28.995376,38.7220243 Z M177.698522,26.8630541 C171.384026,26.8630541 166.266464,32.0438019 166.266464,38.4334551 C166.266464,44.8179668 171.384026,50 177.698522,50 C184.011055,50 189.127309,44.8179668 189.127309,38.4334551 C189.127309,32.0438019 184.011055,26.8630541 177.698522,26.8630541 L177.698522,26.8630541 Z M177.698522,44.2215478 C174.601808,44.2215478 172.088182,41.6282818 172.088182,38.4334551 C172.088182,35.233487 174.601808,32.640221 177.698522,32.640221 C180.795891,32.640221 183.3069,35.233487 183.3069,38.4334551 C183.3069,41.6282818 180.795891,44.2215478 177.698522,44.2215478 L177.698522,44.2215478 Z M86.6392856,38.3524758 L86.6392856,49.2699008 L92.1298674,49.2699008 L92.1298674,43.3513415 L98.1649263,43.3513415 L98.1649263,49.2699008 L103.48405,49.2699008 L103.48405,26.8630541 L97.6636408,26.8630541 C90.8105571,26.8630541 86.6392856,32.6106571 86.6392856,38.3524758 L86.6392856,38.3524758 Z M98.1649263,38.7220243 L92.1782944,38.7220243 L92.1782944,36.6660496 C92.1782944,33.8677645 94.8300033,32.005883 97.6636408,32.005883 C97.8383709,32.005883 98.0032846,32.0090965 98.1649263,32.0225931 L98.1649263,38.7220243 Z M153.749377,26.8630541 C153.423476,26.8630541 153.105428,26.8791214 152.788034,26.9086853 L152.788034,26.8630541 L147.465638,26.8630541 L147.465638,49.2699008 L152.788034,49.23391 C153.105428,49.2576897 153.423476,49.2699008 153.749377,49.2699008 C159.926445,49.2699008 164.937337,44.252397 164.937337,38.0677629 C164.937337,31.8805579 159.926445,26.8630541 153.749377,26.8630541 L153.749377,26.8630541 Z M153.749377,44.089153 C153.418895,44.089153 153.098884,44.0634453 152.788034,44.0152433 L152.788034,32.1209251 C153.098884,32.070795 153.418895,32.0450873 153.749377,32.0450873 C157.119639,32.0450873 159.851841,34.7392561 159.851841,38.0677629 C159.851841,41.3949842 157.119639,44.089153 153.749377,44.089153 L153.749377,44.089153 Z M123.701694,26.8630541 L104.990524,26.8630541 L104.990524,31.6189819 L111.996742,31.6189819 L111.996742,49.2660447 L117.319793,49.2660447 L117.319793,31.6189819 L123.701694,31.6189819 L123.701694,26.8630541 Z M134.066394,26.8630541 C127.751243,26.8630541 122.636299,32.0438019 122.636299,38.4334551 C122.636299,44.8179668 127.751243,50 134.066394,50 C140.382853,50 145.494526,44.8179668 145.494526,38.4334551 C145.494526,32.0438019 140.382853,26.8630541 134.066394,26.8630541 L134.066394,26.8630541 Z M134.066394,44.2215478 C130.970989,44.2215478 128.455399,41.6282818 128.455399,38.4334551 C128.455399,35.233487 130.970989,32.640221 134.066394,32.640221 C137.170307,32.640221 139.676735,35.233487 139.676735,38.4334551 C139.676735,41.6282818 137.170307,44.2215478 134.066394,44.2215478 L134.066394,44.2215478 Z" id="Fill-1" fill="#001E62"></path>
            <g id="Group-32" transform="translate(193.837037, 0.000000)">
                <g id="Icono" transform="translate(0.000000, 26.863054)" fill="#418FDE">
                    <path d="M98.1629631,0 L98.1629631,5.45196422 L86.4292169,5.45196422 L86.4292169,9.33640035 L95.5531371,9.33640035 L95.5531371,14.6707518 L86.4292169,14.6707518 L86.4292169,17.6849817 L98.1629631,17.6849817 L98.1629631,23.1369459 L80.5656159,23.1369459 L80.5656159,0 L98.1629631,0 Z M25.8528524,0.000642692941 C28.7231374,0.00128538588 30.2976713,0.0302065682 32.5011027,0.823289657 C35.7496423,1.99491889 37.7724538,4.47250018 37.7724538,7.89098393 C37.7724538,11.9952211 36.40079,13.5948838 35.3988733,14.6958168 C36.645543,15.6335058 37.48909,16.6489606 37.48909,19.7274598 L37.48909,23.1369459 L32.1784737,23.1369459 L32.1784737,20.5970234 C32.1784737,18.835402 31.0077168,16.9625948 28.8370065,16.9625948 L25.5282602,16.9625948 L25.5282602,23.1369459 L20.0213179,23.1369459 L20.0213179,0.000642692941 L25.8528524,0.000642692941 Z M56.0000072,0 C60.2766403,0.0122111659 62.6750887,0.223014451 63.7241235,3.73340329 L63.7542268,3.83237801 C64.813078,0.284712973 66.9275082,0.0122111659 71.2054502,0 L76.792886,0 L76.792886,23.1369459 L71.2054502,23.1369459 L71.2054502,5.41661611 C69.2853826,5.0258588 66.554489,5.68397637 66.554489,9.97073829 L66.554489,23.1369459 L60.6548949,23.1369459 L60.6548949,9.97073829 C60.6548949,5.68397637 57.9266189,5.0258588 56.0000072,5.41661611 L56.0000072,23.1369459 L50.4112625,23.1369459 L50.4112625,0 L56.0000072,0 Z M5.83153443,0.000642692941 C8.70247389,0.00128538588 10.2770078,0.0302065682 12.4797847,0.823289657 C15.7283244,1.99491889 17.7511358,4.47250018 17.7511358,7.89098393 C17.7511358,11.9952211 16.3801264,13.5948838 15.3775554,14.6958168 C15.3775554,14.6958168 13.2834122,16.9838037 8.8156885,16.9625948 L5.50759665,16.9625948 L5.50759665,23.1369459 L0,23.1369459 L0,0.000642692941 L5.83153443,0.000642692941 Z M40.6244151,23.1253774 L46.2393365,23.1253774 L46.2393365,0.0199234812 L40.6244151,0.0199234812 L40.6244151,23.1253774 Z M25.5282602,5.21802399 L25.5282602,12.2323747 L28.1910942,12.2323747 C30.6451682,12.2323747 32.261585,10.9399192 32.261585,8.71106012 C32.261585,6.99635536 30.9664883,5.2353767 27.94765,5.2353767 L27.4738501,5.234734 C26.6420826,5.23344862 26.0092587,5.22830707 25.5282602,5.21802399 L25.5282602,5.21802399 Z M5.50759665,5.21802399 L5.50759665,12.2323747 L8.16977621,12.2323747 C10.6238503,12.2323747 12.2409215,10.9399192 12.2409215,8.71106012 C12.2409215,6.99635536 10.9458248,5.2353767 7.92633206,5.2353767 L7.45253216,5.234734 C6.62076465,5.23344862 5.98794075,5.22830707 5.50759665,5.21802399 L5.50759665,5.21802399 Z" id="Fill-6"></path>
                </g>
                <g id="Group-6" transform="translate(7.017387, 0.000000)">
                    <g id="Group-3" transform="translate(36.828219, 0.000000)">
                        <mask id="mask-2" fill="white">
                            <use xlink:href="#path-1"></use>
                        </mask>
                        <g id="Clip-2"></g>
                        <path d="M-1.07328811e-14,1.57032165 L9.51475751,0.0445089997 C10.7382777,-0.109985049 11.973882,0.139412487 13.0327556,0.756652994 C17.3090342,3.25062835 27.8569865,11.1136397 28.1424746,11.1158468 C28.4951807,11.1187895 47.5654797,16.1950225 47.5654797,16.1950225 C47.5654797,16.1950225 48.4015518,16.7232451 48.2195343,17.8194171 C48.0971823,18.5617242 47.5088353,19.1517444 46.7868073,19.417327 L38.655685,21.4176571 C37.7312475,21.757544 36.7773549,21.8907031 35.8128887,21.6832397 L0.256032926,13.9828149 L-1.07328811e-14,1.57032165 Z" id="Fill-1" fill="#001E62" mask="url(#mask-2)"></path>
                    </g>
                    <path d="M0.232201634,20.4497886 L0.232201634,20.4497886 C0.587173536,21.0376017 1.2812569,21.3480612 1.9708087,21.2274087 L35.0760926,15.4221109 C36.1878343,15.2278898 37.3267655,15.2315682 38.437752,15.4338819 L72.5709439,21.6651418 C73.4107923,21.8189002 74.2279829,21.3068628 74.4326582,20.4983439 C74.6441308,19.6655474 74.1305545,18.8217156 73.2786219,18.6032169 L58.052593,14.6945175 C56.8079256,14.3752298 55.629721,13.8462716 54.5708474,13.1326562 L37.8244814,1.83840561 C37.2859815,1.47571244 36.5715061,1.48086224 36.0390483,1.85238364 L21.1181442,12.2579256 C20.2594143,12.856774 19.2979691,13.3003926 18.278369,13.5681823 L1.23820711,18.0499811 C0.171780884,18.3302774 -0.328200817,19.5228243 0.232201634,20.4497886" id="Fill-4" fill="#418FDE"></path>
                </g>
            </g>
        </g>
    </g>
</svg>